<svg width="152" height="41" viewBox="0 0 152 41" fill="none" xmlns="http://www.w3.org/2000/svg">
<path d="M13.5977 1V16H11.3224V6.76493L7.20515 12.306H6.44671L2.32948 6.70896V16H0V1H0.812611L6.82593 9.28358L12.7851 1H13.5977Z" fill="white"/>
<path d="M34.7429 13.5373H28.2962L27.2669 16H24.829L31.1132 1H31.8717L38.21 16H35.718L34.7429 13.5373ZM31.4924 5.42164L29.1088 11.5224H33.8761L31.4924 5.42164Z" fill="white"/>
<path d="M49.4178 1.75L54.6591 7" stroke="white" stroke-width="3"/>
<path d="M62.8955 15.25L57.6542 10" stroke="white" stroke-width="3"/>
<path d="M62.8955 1.75L57.6542 7" stroke="white" stroke-width="3"/>
<path d="M49.4178 15.25L54.6591 10" stroke="white" stroke-width="3"/>
<path d="M80.3494 1H89.5589V3.12687H82.6247V7.54851H88.3129V9.73135H82.6247V15.8321H80.3494V1Z" fill="white"/>
<path d="M109.729 15.7761L105.666 10.0672H103.066V15.7761H100.79V1H105.991C106.966 1 107.779 1.16791 108.537 1.5597C109.296 1.95149 109.837 2.45522 110.271 3.18284C110.65 3.85448 110.867 4.63806 110.867 5.53358C110.867 6.48508 110.596 7.3806 110.108 8.10821C109.621 8.83582 108.971 9.39552 108.104 9.73135L112.384 15.8321H109.729V15.7761ZM103.066 7.99627H105.937C106.749 7.99627 107.345 7.77239 107.779 7.32463C108.212 6.87687 108.429 6.31717 108.429 5.58955C108.429 4.86194 108.212 4.24627 107.779 3.79851C107.345 3.35075 106.695 3.12687 105.937 3.12687H103.066V7.99627Z" fill="white"/>
<path d="M133.529 13.5373H127.082L126.053 16H123.615L129.953 1H130.712L136.996 16H134.504L133.529 13.5373ZM130.332 5.42164L127.949 11.5224H132.716L130.332 5.42164Z" fill="white"/>
<path d="M149.725 1H152V15.7761H149.725V1Z" fill="white"/>
<path d="M1.88565 40L2.42543 38.3416H5.04972L5.58949 40H7.23722L4.73011 32.7273H2.74858L0.237926 40H1.88565ZM2.81605 37.1413L3.71094 34.3892H3.76776L4.66264 37.1413H2.81605ZM22.5932 35.0781H24.1557C23.9569 33.6399 22.6891 32.6278 21.0449 32.6278C19.1238 32.6278 17.6429 34.0128 17.6429 36.3707C17.6429 38.6719 19.0279 40.0994 21.0769 40.0994C22.9128 40.0994 24.2232 38.9382 24.2232 37.0241V36.108H21.1799V37.2656H22.7424C22.7211 38.1676 22.1067 38.7393 21.084 38.7393C19.9299 38.7393 19.2019 37.8764 19.2019 36.3565C19.2019 34.8438 19.9583 33.9879 21.0698 33.9879C21.8617 33.9879 22.3979 34.3963 22.5932 35.0781ZM35.3782 40H40.293V38.7322H36.9158V36.9957H40.0266V35.728H36.9158V33.995H40.2788V32.7273H35.3782V40ZM57.5843 32.7273H56.0538V37.3011H55.9899L52.8507 32.7273H51.5012V40H53.0389V35.4226H53.0922L56.2562 40H57.5843V32.7273ZM75.2717 35.2734C75.0692 33.5938 73.7979 32.6278 72.1147 32.6278C70.1935 32.6278 68.7269 33.9844 68.7269 36.3636C68.7269 38.7358 70.1687 40.0994 72.1147 40.0994C73.979 40.0994 75.1048 38.8601 75.2717 37.5213L73.7163 37.5142C73.5707 38.2919 72.9599 38.7393 72.1396 38.7393C71.0352 38.7393 70.2859 37.919 70.2859 36.3636C70.2859 34.8509 71.0245 33.9879 72.1502 33.9879C72.9918 33.9879 73.5991 34.4744 73.7163 35.2734H75.2717ZM85.9482 32.7273L88.6009 37.429V40H90.1278V37.429L92.7805 32.7273H91.0582L89.3999 35.8594H89.3288L87.6705 32.7273H85.9482Z" fill="#FF2E53"/>
</svg>
